<?xml version="1.0" encoding="UTF-8"?>
<!DOCTYPE svg PUBLIC "-//W3C//DTD SVG 1.1//EN" "http://www.w3.org/Graphics/SVG/1.1/DTD/svg11.dtd">
<svg xmlns="http://www.w3.org/2000/svg" version="1.1" width="512px" height="512px" style="shape-rendering:geometricPrecision; text-rendering:geometricPrecision; image-rendering:optimizeQuality; fill-rule:evenodd; clip-rule:evenodd" xmlns:xlink="http://www.w3.org/1999/xlink">
<g><path style="opacity:1" fill="#fbfdfc" d="M -0.5,-0.5 C 170.167,-0.5 340.833,-0.5 511.5,-0.5C 511.5,170.167 511.5,340.833 511.5,511.5C 340.833,511.5 170.167,511.5 -0.5,511.5C -0.5,340.833 -0.5,170.167 -0.5,-0.5 Z"/></g>
<g><path style="opacity:1" fill="#f5f7f7" d="M 349.5,107.5 C 349.5,119.167 349.5,130.833 349.5,142.5C 348.281,144.942 346.781,147.276 345,149.5C 339.218,145.033 333.384,140.7 327.5,136.5C 330.527,131.779 333.027,126.779 335,121.5C 335.923,103.316 338.09,85.3155 341.5,67.5C 340.889,59.5073 340.389,51.5073 340,43.5C 336.409,34.4913 330.576,32.9913 322.5,39C 311.823,49.1836 304.323,61.3503 300,75.5C 299.333,79.8333 299.333,84.1667 300,88.5C 305.585,99.5799 308.918,111.247 310,123.5C 305.066,127.054 299.566,128.22 293.5,127C 289.176,126.13 284.842,125.297 280.5,124.5C 278.61,107.509 281.776,91.5094 290,76.5C 292.542,63.206 296.876,50.5393 303,38.5C 313.189,25.849 324.855,24.1823 338,33.5C 339.92,36.3388 341.587,39.3388 343,42.5C 344.976,49.071 346.643,55.7377 348,62.5C 348.169,77.6723 348.669,92.6723 349.5,107.5 Z"/></g>
<g><path style="opacity:1" fill="#181919" d="M 350.5,65.5 C 349.504,79.3234 349.171,93.3234 349.5,107.5C 348.669,92.6723 348.169,77.6723 348,62.5C 346.643,55.7377 344.976,49.071 343,42.5C 341.587,39.3388 339.92,36.3388 338,33.5C 324.855,24.1823 313.189,25.849 303,38.5C 296.876,50.5393 292.542,63.206 290,76.5C 281.776,91.5094 278.61,107.509 280.5,124.5C 284.842,125.297 289.176,126.13 293.5,127C 299.566,128.22 305.066,127.054 310,123.5C 308.918,111.247 305.585,99.5799 300,88.5C 299.333,84.1667 299.333,79.8333 300,75.5C 304.323,61.3503 311.823,49.1836 322.5,39C 330.576,32.9913 336.409,34.4913 340,43.5C 340.389,51.5073 340.889,59.5073 341.5,67.5C 338.09,85.3155 335.923,103.316 335,121.5C 333.027,126.779 330.527,131.779 327.5,136.5C 333.384,140.7 339.218,145.033 345,149.5C 346.781,147.276 348.281,144.942 349.5,142.5C 349.5,143.167 349.833,143.5 350.5,143.5C 348.746,146.652 347.913,149.985 348,153.5C 356.949,166.117 366.283,178.45 376,190.5C 379.027,196.765 380.36,203.431 380,210.5C 383.946,214.445 388.446,217.611 393.5,220C 408.764,235.047 420.097,252.547 427.5,272.5C 426.442,271.4 425.608,270.066 425,268.5C 424.601,268.728 424.435,269.062 424.5,269.5C 416.056,250.458 404.056,233.958 388.5,220C 384.318,216.91 379.651,214.91 374.5,214C 365.276,213.316 356.109,213.816 347,215.5C 345.833,215.167 344.667,214.833 343.5,214.5C 346.687,213.135 350.02,212.301 353.5,212C 361.493,211.5 369.493,211.334 377.5,211.5C 378.55,203.912 377.05,196.912 373,190.5C 368.667,185.5 364.333,180.5 360,175.5C 354.413,164.835 347.247,155.335 338.5,147C 332.414,143.291 326.081,140.124 319.5,137.5C 318.203,134.812 318.536,132.312 320.5,130C 318.939,129.059 317.605,127.892 316.5,126.5C 317.5,125.167 318.5,123.833 319.5,122.5C 319,122.167 318.5,121.833 318,121.5C 313.92,123.25 310.087,125.417 306.5,128C 289.505,127.524 272.505,127.191 255.5,127C 241.522,128.578 227.855,131.578 214.5,136C 206.97,139.541 199.97,143.874 193.5,149C 174.695,156.32 159.862,168.486 149,185.5C 145.535,191.435 142.368,197.435 139.5,203.5C 138.5,202.167 137.5,202.167 136.5,203.5C 138.935,195.964 142.435,188.964 147,182.5C 153.945,173.719 161.445,165.386 169.5,157.5C 167.541,153.331 166.041,148.998 165,144.5C 164.411,134.791 163.411,125.125 162,115.5C 161.371,103.635 162.704,91.9687 166,80.5C 164.556,64.4544 168.222,49.7878 177,36.5C 185.992,28.6501 195.825,27.4834 206.5,33C 210.092,35.921 212.925,39.421 215,43.5C 218.184,51.9312 220.517,60.5979 222,69.5C 223.793,84.5926 226.127,99.5926 229,114.5C 229.15,119.572 229.317,124.572 229.5,129.5C 244.434,124.081 259.768,122.414 275.5,124.5C 277.233,114.865 278.733,105.199 280,95.5C 281.369,89.7183 283.703,84.3849 287,79.5C 289.373,68.6766 292.373,58.0099 296,47.5C 302.847,27.6585 316.014,21.1585 335.5,28C 340.548,31.7147 344.048,36.548 346,42.5C 348.297,50.0199 349.797,57.6866 350.5,65.5 Z"/></g>
<g><path style="opacity:1" fill="#f8faf9" d="M 197.5,128.5 C 195.393,127.532 193.059,127.198 190.5,127.5C 190.915,131.375 190.415,135.042 189,138.5C 188.722,137.584 188.222,136.918 187.5,136.5C 183.397,126.623 179.563,116.623 176,106.5C 175.333,98.8333 175.333,91.1667 176,83.5C 177.994,72.6905 180.494,62.0239 183.5,51.5C 187.155,49.9982 190.489,50.4982 193.5,53C 198.293,57.0846 201.126,62.2512 202,68.5C 200.148,88.6017 198.648,108.602 197.5,128.5 Z"/></g>
<g><path style="opacity:1" fill="#f8faf9" d="M 328.5,37.5 C 333.598,36.4295 336.764,38.4295 338,43.5C 338.667,54.5 338.667,65.5 338,76.5C 336.692,79.7302 335.692,83.0636 335,86.5C 334.523,98.5107 333.857,110.511 333,122.5C 331.156,127.827 328.323,132.494 324.5,136.5C 321.256,134.991 320.589,132.658 322.5,129.5C 322.272,127.603 321.272,126.27 319.5,125.5C 321.124,124.131 321.624,122.464 321,120.5C 318.333,119.167 315.667,119.167 313,120.5C 309.966,107.401 306.133,94.5674 301.5,82C 304.797,63.5501 313.797,48.7168 328.5,37.5 Z"/></g>
<g><path style="opacity:1" fill="#f4f5f5" d="M 202.5,127.5 C 201.833,125.5 201.167,123.5 200.5,121.5C 200.679,109.742 201.846,98.0754 204,86.5C 207.316,72.7379 204.149,60.9046 194.5,51C 191.119,48.7552 187.452,48.0885 183.5,49C 182.299,49.9025 181.465,51.0692 181,52.5C 178.51,61.462 176.176,70.462 174,79.5C 173.333,89.1667 173.333,98.8333 174,108.5C 174.798,111.893 175.798,115.226 177,118.5C 183.109,127.931 186.609,138.265 187.5,149.5C 182.268,150.532 177.435,152.532 173,155.5C 172.5,155.167 172,154.833 171.5,154.5C 166.596,140.449 163.929,125.949 163.5,111C 165.854,91.8098 168.354,72.6431 171,53.5C 176.369,34.3985 188.202,28.5652 206.5,36C 213.193,45.0682 217.36,55.2348 219,66.5C 220.354,80.6672 222.687,94.6672 226,108.5C 226.541,116.182 226.374,123.848 225.5,131.5C 221.818,131.665 218.152,131.499 214.5,131C 212.808,129.599 212.141,127.766 212.5,125.5C 208.968,125.31 205.635,125.977 202.5,127.5 Z"/></g>
<g><path style="opacity:1" fill="#242625" d="M 350.5,65.5 C 351.348,83.9299 352.015,102.43 352.5,121C 352.564,128.59 351.898,136.09 350.5,143.5C 349.833,143.5 349.5,143.167 349.5,142.5C 349.5,130.833 349.5,119.167 349.5,107.5C 349.171,93.3234 349.504,79.3234 350.5,65.5 Z"/></g>
<g><path style="opacity:1" fill="#8f9190" d="M 200.5,121.5 C 201.167,123.5 201.833,125.5 202.5,127.5C 202.44,128.043 202.107,128.376 201.5,128.5C 200.526,126.257 200.192,123.924 200.5,121.5 Z"/></g>
<g><path style="opacity:1" fill="#fafcfb" d="M 424.5,269.5 C 424.5,270.5 424.5,271.5 424.5,272.5C 424.975,275.082 424.308,277.082 422.5,278.5C 407.002,276.294 392.669,279.294 379.5,287.5C 372.576,287.447 365.576,287.28 358.5,287C 354.385,285.777 350.718,283.777 347.5,281C 346.365,280.251 345.365,280.417 344.5,281.5C 350.713,288.411 358.546,291.745 368,291.5C 371.388,291.414 374.555,290.914 377.5,290C 375.544,293.595 375.044,297.428 376,301.5C 380.704,316.691 391.037,324.024 407,323.5C 412.509,323.099 418.009,322.599 423.5,322C 428.408,320.221 432.075,317.054 434.5,312.5C 442.681,324.23 445.681,337.23 443.5,351.5C 439.951,349.762 436.284,348.429 432.5,347.5C 432.281,348.675 432.614,349.675 433.5,350.5C 447.878,355.715 457.378,365.715 462,380.5C 461.45,399.366 457.117,417.366 449,434.5C 445.246,440.258 440.746,445.425 435.5,450C 430.38,452.06 425.38,454.393 420.5,457C 419.213,458.41 418.046,459.91 417,461.5C 416.356,455.377 413.522,450.544 408.5,447C 399.281,441.242 389.281,438.909 378.5,440C 377.483,441.049 377.316,442.216 378,443.5C 382.954,446.785 387.62,450.452 392,454.5C 394.22,458.595 394.887,462.928 394,467.5C 390.876,468.741 387.709,469.908 384.5,471C 381.036,471.817 377.702,471.483 374.5,470C 373.978,469.439 373.645,468.772 373.5,468C 377.018,461.434 376.018,455.767 370.5,451C 367.247,449.344 363.913,449.177 360.5,450.5C 365.704,450.681 369.538,453.015 372,457.5C 371.546,461.783 371.046,466.117 370.5,470.5C 359.864,472.502 349.531,471.502 339.5,467.5C 338.417,466.635 338.251,465.635 339,464.5C 341.545,459.239 344.712,454.406 348.5,450C 341.639,454.437 337.639,460.937 336.5,469.5C 336.02,466.536 335.687,463.536 335.5,460.5C 332.603,460.319 329.77,460.652 327,461.5C 324.953,460.391 322.787,459.724 320.5,459.5C 334.025,456.507 345.525,449.84 355,439.5C 355.688,438.668 355.521,438.002 354.5,437.5C 339.733,451.458 322.066,458.291 301.5,458C 286.12,458.836 270.787,460.169 255.5,462C 224.386,465.861 194.386,461.861 165.5,450C 162.751,448.877 160.251,447.377 158,445.5C 157.735,447.163 158.235,448.663 159.5,450C 162.564,451.859 165.564,453.692 168.5,455.5C 167.599,456.29 166.932,457.29 166.5,458.5C 165.356,456.9 164.189,455.233 163,453.5C 164.134,458.728 164.467,464.061 164,469.5C 162.786,471.049 161.286,472.215 159.5,473C 149.747,475.978 139.747,477.144 129.5,476.5C 128.966,471.099 130.133,466.099 133,461.5C 134.491,459.996 136.324,459.163 138.5,459C 137.534,457.322 136.201,456.655 134.5,457C 128.71,461.414 125.71,467.247 125.5,474.5C 121.167,474.5 116.833,474.5 112.5,474.5C 111.145,466.066 113.478,458.899 119.5,453C 121.49,451.249 123.823,450.249 126.5,450C 117.465,450.681 111.632,455.515 109,464.5C 108.503,466.81 108.337,469.143 108.5,471.5C 104.051,471.627 99.8844,470.627 96,468.5C 97.9688,459.173 103.136,452.007 111.5,447C 117.287,444.46 123.287,442.626 129.5,441.5C 113.44,439.697 101.774,446.031 94.5,460.5C 72.5711,449.086 55.0711,432.419 42,410.5C 25.87,380.781 30.0367,354.281 54.5,331C 57.8536,328.968 61.1869,326.968 64.5,325C 65.5,324.833 66.5,324.667 67.5,324.5C 69.0296,324.64 70.0296,325.307 70.5,326.5C 75.8909,327.716 80.2242,330.716 83.5,335.5C 83.8333,335.333 84.1667,335.167 84.5,335C 81.4462,329.766 77.1128,326.266 71.5,324.5C 71.3893,323.883 71.056,323.383 70.5,323C 67.854,322.503 65.1873,322.336 62.5,322.5C 63.5555,317.061 66.5555,313.061 71.5,310.5C 74.0205,313.854 77.0205,316.688 80.5,319C 84.3199,322.08 88.6533,324.413 93.5,326C 99.6878,326.58 105.688,325.747 111.5,323.5C 133.434,329.568 145.101,321.235 146.5,298.5C 150.445,298.522 153.778,297.189 156.5,294.5C 156,294.167 155.5,293.833 155,293.5C 151.641,295.144 148.141,295.644 144.5,295C 130.681,289.509 117.848,282.343 106,273.5C 104.767,271.134 103.934,268.634 103.5,266C 107.341,244.435 119.008,228.935 138.5,219.5C 139.922,219.291 141.255,218.791 142.5,218C 159.167,217.333 175.833,217.333 192.5,218C 202.207,219.775 211.874,221.608 221.5,223.5C 220.344,212.542 217.178,202.209 212,192.5C 201.588,182.434 192.255,183.434 184,195.5C 180.452,200.882 179.785,206.548 182,212.5C 182.75,213.126 183.584,213.626 184.5,214C 169.759,214.183 155.092,214.683 140.5,215.5C 139.532,213.393 139.198,211.059 139.5,208.5C 139.5,206.833 139.5,205.167 139.5,203.5C 142.368,197.435 145.535,191.435 149,185.5C 159.862,168.486 174.695,156.32 193.5,149C 199.97,143.874 206.97,139.541 214.5,136C 227.855,131.578 241.522,128.578 255.5,127C 272.505,127.191 289.505,127.524 306.5,128C 310.087,125.417 313.92,123.25 318,121.5C 318.5,121.833 319,122.167 319.5,122.5C 318.5,123.833 317.5,125.167 316.5,126.5C 317.605,127.892 318.939,129.059 320.5,130C 318.536,132.312 318.203,134.812 319.5,137.5C 326.081,140.124 332.414,143.291 338.5,147C 347.247,155.335 354.413,164.835 360,175.5C 364.333,180.5 368.667,185.5 373,190.5C 377.05,196.912 378.55,203.912 377.5,211.5C 369.493,211.334 361.493,211.5 353.5,212C 350.02,212.301 346.687,213.135 343.5,214.5C 344.667,214.833 345.833,215.167 347,215.5C 356.109,213.816 365.276,213.316 374.5,214C 379.651,214.91 384.318,216.91 388.5,220C 404.056,233.958 416.056,250.458 424.5,269.5 Z"/></g>
<g><path style="opacity:1" fill="#f2f3f3" d="M 189.5,141.5 C 193.128,138.57 194.128,134.904 192.5,130.5C 194.5,130.5 196.5,130.5 198.5,130.5C 202.761,130.455 206.595,129.122 210,126.5C 209.937,129.767 211.437,131.934 214.5,133C 205.573,137.042 197.406,142.209 190,148.5C 188.336,146.214 188.17,143.881 189.5,141.5 Z"/></g>
<g><path style="opacity:1" fill="#373838" d="M 197.5,128.5 C 197.833,129.167 198.167,129.833 198.5,130.5C 196.5,130.5 194.5,130.5 192.5,130.5C 194.128,134.904 193.128,138.57 189.5,141.5C 188.032,140.221 187.365,138.554 187.5,136.5C 188.222,136.918 188.722,137.584 189,138.5C 190.415,135.042 190.915,131.375 190.5,127.5C 193.059,127.198 195.393,127.532 197.5,128.5 Z"/></g>
<g><path style="opacity:1" fill="#040505" d="M 303.5,221.5 C 300.5,221.5 297.5,221.5 294.5,221.5C 294.737,220.209 294.404,219.209 293.5,218.5C 293.373,207.342 296.206,197.009 302,187.5C 306.842,182.701 312.675,181.201 319.5,183C 328.548,185.712 334.714,191.546 338,200.5C 338.667,204.167 338.667,207.833 338,211.5C 337.167,213.667 335.667,215.167 333.5,216C 323.547,218.156 313.547,219.989 303.5,221.5 Z"/></g>
<g><path style="opacity:1" fill="#0c0d0d" d="M 138.5,219.5 C 137.209,219.737 136.209,219.404 135.5,218.5C 135.221,213.405 135.555,208.405 136.5,203.5C 137.5,202.167 138.5,202.167 139.5,203.5C 139.5,205.167 139.5,206.833 139.5,208.5C 138.2,211.024 138.2,213.691 139.5,216.5C 140.107,216.376 140.44,216.043 140.5,215.5C 155.092,214.683 169.759,214.183 184.5,214C 183.584,213.626 182.75,213.126 182,212.5C 179.785,206.548 180.452,200.882 184,195.5C 192.255,183.434 201.588,182.434 212,192.5C 217.178,202.209 220.344,212.542 221.5,223.5C 211.874,221.608 202.207,219.775 192.5,218C 175.833,217.333 159.167,217.333 142.5,218C 141.255,218.791 139.922,219.291 138.5,219.5 Z"/></g>
<g><path style="opacity:1" fill="#eeeef0" d="M 308.5,189.5 C 316.888,189.362 318.554,192.529 313.5,199C 310.412,199.847 307.579,199.347 305,197.5C 304.279,193.946 305.446,191.28 308.5,189.5 Z"/></g>
<g><path style="opacity:1" fill="#eef0f1" d="M 198.5,191.5 C 203.993,190.178 206.493,192.178 206,197.5C 198.642,201.527 196.142,199.527 198.5,191.5 Z"/></g>
<g><path style="opacity:1" fill="#5b5e5e" d="M 139.5,208.5 C 139.198,211.059 139.532,213.393 140.5,215.5C 140.44,216.043 140.107,216.376 139.5,216.5C 138.2,213.691 138.2,211.024 139.5,208.5 Z"/></g>
<g><path style="opacity:1" fill="#4d4e4e" d="M 351.5,222.5 C 351.953,221.542 352.619,220.708 353.5,220C 352.833,219.833 352.167,219.667 351.5,219.5C 348.56,220.607 345.727,221.94 343,223.5C 342.5,223.333 342,223.167 341.5,223C 342.328,222.085 343.328,221.419 344.5,221C 344,220.833 343.5,220.667 343,220.5C 338.878,221.909 334.711,222.742 330.5,223C 337.014,220.162 343.848,218.329 351,217.5C 357.975,218.074 358.141,219.74 351.5,222.5 Z"/></g>
<g><path style="opacity:1" fill="#6b706f" d="M 293.5,218.5 C 294.404,219.209 294.737,220.209 294.5,221.5C 297.5,221.5 300.5,221.5 303.5,221.5C 300.375,222.479 297.042,222.813 293.5,222.5C 293.5,221.167 293.5,219.833 293.5,218.5 Z"/></g>
<g><path style="opacity:1" fill="#363b37" d="M 351.5,222.5 C 356.651,223.327 361.984,223.827 367.5,224C 364.353,225.128 361.02,225.628 357.5,225.5C 354.5,225.167 351.5,224.833 348.5,224.5C 349.005,223.081 350.005,222.415 351.5,222.5 Z"/></g>
<g><path style="opacity:1" fill="#6c6e6d" d="M 164.5,229.5 C 169.65,228.349 174.984,228.183 180.5,229C 178.187,229.662 175.854,230.162 173.5,230.5C 170.713,229.523 167.713,229.19 164.5,229.5 Z"/></g>
<g><path style="opacity:1" fill="#101110" d="M 164.5,229.5 C 167.713,229.19 170.713,229.523 173.5,230.5C 163.522,231.532 153.522,231.699 143.5,231C 148.194,226.981 153.527,224.648 159.5,224C 156.167,225.667 152.833,227.333 149.5,229C 151.5,229.667 153.5,229.667 155.5,229C 159.046,227.207 162.713,225.707 166.5,224.5C 167.696,224.846 167.696,225.346 166.5,226C 164.283,227.275 161.949,228.275 159.5,229C 161.134,229.494 162.801,229.66 164.5,229.5 Z"/></g>
<g><path style="opacity:1" fill="#191a19" d="M 278.5,258.5 C 280.167,259.167 281.833,259.833 283.5,260.5C 273.197,261.032 265.697,256.699 261,247.5C 253.819,259.844 243.319,264.678 229.5,262C 241.146,261.926 250.646,257.426 258,248.5C 258.953,245.568 259.453,242.568 259.5,239.5C 257.801,239.66 256.134,239.494 254.5,239C 250.367,235.869 246.534,232.369 243,228.5C 243.402,222.409 246.568,218.242 252.5,216C 263.016,213.914 269.683,217.914 272.5,228C 271.884,233.456 268.884,236.956 263.5,238.5C 262.031,244.916 264.031,250.082 269.5,254C 271.976,256.571 274.976,258.071 278.5,258.5 Z"/></g>
<g><path style="opacity:1" fill="#f5f6f6" d="M 252.5,218.5 C 260.045,216.864 265.878,219.197 270,225.5C 270.734,231.788 267.901,235.622 261.5,237C 259.029,237.706 256.695,237.373 254.5,236C 251.117,232.953 248.117,229.62 245.5,226C 247.348,222.987 249.682,220.487 252.5,218.5 Z"/></g>
<g><path style="opacity:1" fill="#71736f" d="M 278.5,258.5 C 281.187,258.336 283.854,258.503 286.5,259C 285.756,260.039 284.756,260.539 283.5,260.5C 281.833,259.833 280.167,259.167 278.5,258.5 Z"/></g>
<g><path style="opacity:1" fill="#6f7271" d="M 424.5,272.5 C 425.468,274.607 425.802,276.941 425.5,279.5C 424.209,279.737 423.209,279.404 422.5,278.5C 424.308,277.082 424.975,275.082 424.5,272.5 Z"/></g>
<g><path style="opacity:1" fill="#171917" d="M 164.5,299.5 C 168.922,301.561 172.922,304.394 176.5,308C 199.194,324.609 224.528,330.942 252.5,327C 255,326.115 257.333,324.948 259.5,323.5C 259.833,324 260.167,324.5 260.5,325C 258.874,326.819 256.874,328.152 254.5,329C 224.239,334.268 196.905,327.601 172.5,309C 169.223,306.234 166.557,303.067 164.5,299.5 Z"/></g>
<g><path style="opacity:1" fill="#393f3d" d="M 71.5,324.5 C 77.1128,326.266 81.4462,329.766 84.5,335C 84.1667,335.167 83.8333,335.333 83.5,335.5C 80.2242,330.716 75.8909,327.716 70.5,326.5C 71.3382,326.158 71.6716,325.492 71.5,324.5 Z"/></g>
<g><path style="opacity:1" fill="#131513" d="M 343.5,294.5 C 344.613,295.946 344.78,297.613 344,299.5C 339.268,308.9 332.434,316.4 323.5,322C 307.687,331.529 290.687,334.696 272.5,331.5C 273.288,327.203 275.621,326.37 279.5,329C 303.189,330.773 323.023,322.94 339,305.5C 341.616,302.271 343.116,298.604 343.5,294.5 Z"/></g>
<g><path style="opacity:1" fill="#2b2b29" d="M 404.5,381.5 C 405.613,382.946 405.78,384.613 405,386.5C 397.533,403.303 386.366,417.136 371.5,428C 369.945,429.289 368.279,429.956 366.5,430C 384.6,418.069 397.267,401.902 404.5,381.5 Z"/></g>
<g><path style="opacity:1" fill="#171817" d="M 104.5,378.5 C 108.939,387.377 113.439,396.377 118,405.5C 130.559,421.87 146.392,434.037 165.5,442C 160.028,440.856 154.861,438.689 150,435.5C 149.586,435.957 149.086,436.291 148.5,436.5C 124.634,424.082 109.967,404.749 104.5,378.5 Z"/></g>
<g><path style="opacity:1" fill="#1f2020" d="M 289.5,437.5 C 282.5,438.167 275.5,438.833 268.5,439.5C 256.851,441.766 245.184,441.933 233.5,440C 247.755,439.78 261.921,438.614 276,436.5C 280.519,436.697 285.019,437.03 289.5,437.5 Z"/></g>
<g><path style="opacity:1" fill="#7f8682" d="M 289.5,437.5 C 290.043,437.56 290.376,437.893 290.5,438.5C 283.197,439.497 275.863,439.831 268.5,439.5C 275.5,438.833 282.5,438.167 289.5,437.5 Z"/></g>
<g><path style="opacity:1" fill="#141515" d="M 427.5,272.5 C 427.192,274.924 427.526,277.257 428.5,279.5C 434.072,281.944 437.239,286.277 438,292.5C 438.756,297.943 438.256,303.277 436.5,308.5C 445.393,321.179 448.727,335.179 446.5,350.5C 456.119,359.411 462.953,370.078 467,382.5C 467.667,386.167 467.667,389.833 467,393.5C 463.978,404.919 460.645,416.253 457,427.5C 450.043,443.123 438.543,453.956 422.5,460C 418.82,464.508 414.153,467.508 408.5,469C 398.926,471.049 389.426,473.216 380,475.5C 370.201,475.236 360.368,475.07 350.5,475C 345.71,473.437 341.044,471.604 336.5,469.5C 337.639,460.937 341.639,454.437 348.5,450C 344.712,454.406 341.545,459.239 339,464.5C 338.251,465.635 338.417,466.635 339.5,467.5C 349.531,471.502 359.864,472.502 370.5,470.5C 371.046,466.117 371.546,461.783 372,457.5C 369.538,453.015 365.704,450.681 360.5,450.5C 363.913,449.177 367.247,449.344 370.5,451C 376.018,455.767 377.018,461.434 373.5,468C 373.645,468.772 373.978,469.439 374.5,470C 377.702,471.483 381.036,471.817 384.5,471C 387.709,469.908 390.876,468.741 394,467.5C 394.887,462.928 394.22,458.595 392,454.5C 387.62,450.452 382.954,446.785 378,443.5C 377.316,442.216 377.483,441.049 378.5,440C 389.281,438.909 399.281,441.242 408.5,447C 413.522,450.544 416.356,455.377 417,461.5C 418.046,459.91 419.213,458.41 420.5,457C 425.38,454.393 430.38,452.06 435.5,450C 440.746,445.425 445.246,440.258 449,434.5C 457.117,417.366 461.45,399.366 462,380.5C 457.378,365.715 447.878,355.715 433.5,350.5C 432.614,349.675 432.281,348.675 432.5,347.5C 436.284,348.429 439.951,349.762 443.5,351.5C 445.681,337.23 442.681,324.23 434.5,312.5C 432.075,317.054 428.408,320.221 423.5,322C 418.009,322.599 412.509,323.099 407,323.5C 391.037,324.024 380.704,316.691 376,301.5C 375.044,297.428 375.544,293.595 377.5,290C 374.555,290.914 371.388,291.414 368,291.5C 358.546,291.745 350.713,288.411 344.5,281.5C 345.365,280.417 346.365,280.251 347.5,281C 350.718,283.777 354.385,285.777 358.5,287C 365.576,287.28 372.576,287.447 379.5,287.5C 392.669,279.294 407.002,276.294 422.5,278.5C 423.209,279.404 424.209,279.737 425.5,279.5C 425.802,276.941 425.468,274.607 424.5,272.5C 424.5,271.5 424.5,270.5 424.5,269.5C 424.435,269.062 424.601,268.728 425,268.5C 425.608,270.066 426.442,271.4 427.5,272.5 Z"/></g>
<g><path style="opacity:1" fill="#e1e2e2" d="M 413.5,315.5 C 416.372,316.429 419.039,316.763 421.5,316.5C 420.181,320.399 417.681,321.399 414,319.5C 413.51,318.207 413.343,316.873 413.5,315.5 Z"/></g>
<g><path style="opacity:1" fill="#edf0ef" d="M 401.5,314.5 C 404.786,315.207 408.119,315.54 411.5,315.5C 411.5,317.167 411.5,318.833 411.5,320.5C 408.428,320.817 405.428,320.484 402.5,319.5C 401.691,317.929 401.357,316.262 401.5,314.5 Z"/></g>
<g><path style="opacity:1" fill="#e4e6e7" d="M 390.5,313.5 C 393.5,313.5 396.5,313.5 399.5,313.5C 399.674,315.861 400.007,318.194 400.5,320.5C 395.707,319.771 391.374,317.937 387.5,315C 388.737,314.768 389.737,314.268 390.5,313.5 Z"/></g>
<g><path style="opacity:1" fill="#f7f9f9" d="M 400.5,281.5 C 408.84,281.334 417.173,281.5 425.5,282C 430.502,282.079 433.335,284.579 434,289.5C 436.883,300.788 434.049,310.288 425.5,318C 424.517,318.591 423.85,318.257 423.5,317C 424.318,313.755 426.318,311.588 429.5,310.5C 429.167,310.167 428.833,309.833 428.5,309.5C 424.67,311.418 420.67,312.752 416.5,313.5C 406.348,311.722 396.181,311.389 386,312.5C 380.693,306.915 378.36,300.249 379,292.5C 380.5,291 382,289.5 383.5,288C 389.16,285.507 394.826,283.341 400.5,281.5 Z"/></g>
<g><path style="opacity:1" fill="#f2f3f3" d="M 381.5,443.5 C 392.225,442.689 401.725,446.022 410,453.5C 412.258,456.278 412.758,459.278 411.5,462.5C 408.104,464.632 404.437,465.965 400.5,466.5C 398.212,455.541 391.879,447.874 381.5,443.5 Z"/></g>
<g><path style="opacity:1" fill="#141515" d="M 135.5,218.5 C 136.209,219.404 137.209,219.737 138.5,219.5C 119.008,228.935 107.341,244.435 103.5,266C 103.934,268.634 104.767,271.134 106,273.5C 117.848,282.343 130.681,289.509 144.5,295C 148.141,295.644 151.641,295.144 155,293.5C 155.5,293.833 156,294.167 156.5,294.5C 153.778,297.189 150.445,298.522 146.5,298.5C 145.101,321.235 133.434,329.568 111.5,323.5C 105.688,325.747 99.6878,326.58 93.5,326C 88.6533,324.413 84.3199,322.08 80.5,319C 77.0205,316.688 74.0205,313.854 71.5,310.5C 66.5555,313.061 63.5555,317.061 62.5,322.5C 65.1873,322.336 67.854,322.503 70.5,323C 71.056,323.383 71.3893,323.883 71.5,324.5C 71.6716,325.492 71.3382,326.158 70.5,326.5C 70.0296,325.307 69.0296,324.64 67.5,324.5C 66.5,324.667 65.5,324.833 64.5,325C 61.1869,326.968 57.8536,328.968 54.5,331C 30.0367,354.281 25.87,380.781 42,410.5C 55.0711,432.419 72.5711,449.086 94.5,460.5C 101.774,446.031 113.44,439.697 129.5,441.5C 123.287,442.626 117.287,444.46 111.5,447C 103.136,452.007 97.9688,459.173 96,468.5C 99.8844,470.627 104.051,471.627 108.5,471.5C 108.337,469.143 108.503,466.81 109,464.5C 111.632,455.515 117.465,450.681 126.5,450C 123.823,450.249 121.49,451.249 119.5,453C 113.478,458.899 111.145,466.066 112.5,474.5C 116.833,474.5 121.167,474.5 125.5,474.5C 125.71,467.247 128.71,461.414 134.5,457C 136.201,456.655 137.534,457.322 138.5,459C 136.324,459.163 134.491,459.996 133,461.5C 130.133,466.099 128.966,471.099 129.5,476.5C 139.747,477.144 149.747,475.978 159.5,473C 161.286,472.215 162.786,471.049 164,469.5C 164.467,464.061 164.134,458.728 163,453.5C 164.189,455.233 165.356,456.9 166.5,458.5C 169.883,471.015 164.883,478.182 151.5,480C 137.781,481.938 124.115,481.605 110.5,479C 109.643,478.311 108.977,477.478 108.5,476.5C 103.741,475.649 99.0747,474.482 94.5,473C 90.8048,471.032 89.8048,468.198 91.5,464.5C 73.9555,452.79 58.4555,438.79 45,422.5C 36.9141,410.995 31.5807,398.328 29,384.5C 27.5135,372.046 29.8468,360.379 36,349.5C 41.2814,339.219 48.948,331.219 59,325.5C 59.9422,317.786 63.7755,311.953 70.5,308C 69.9415,307.275 69.6082,306.442 69.5,305.5C 70.9318,301.987 71.7652,298.32 72,294.5C 78.9557,284.191 87.9557,276.191 99,270.5C 101.604,246.242 113.771,228.909 135.5,218.5 Z"/></g>
<g><path style="opacity:1" fill="#edeeee" d="M 78.5,304.5 C 82.4102,304.263 86.0769,305.096 89.5,307C 85.5804,309.416 83.5804,312.916 83.5,317.5C 78.7384,315.607 76.2384,312.274 76,307.5C 77.045,306.627 77.8783,305.627 78.5,304.5 Z"/></g>
<g><path style="opacity:1" fill="#f7f9f8" d="M 97.5,274.5 C 100.864,273.789 103.197,274.956 104.5,278C 114.175,284.173 124.175,289.84 134.5,295C 137.618,296.727 140.951,297.561 144.5,297.5C 145.655,307.346 142.321,315.18 134.5,321C 131.795,322.872 128.795,323.705 125.5,323.5C 119.043,323.154 112.709,322.154 106.5,320.5C 106.977,319.522 107.643,318.689 108.5,318C 113.669,316.944 118.502,317.777 123,320.5C 123.5,320.167 124,319.833 124.5,319.5C 118.725,313.981 112.559,313.314 106,317.5C 104.872,319.345 104.372,321.345 104.5,323.5C 100.486,323.666 96.4862,323.499 92.5,323C 87.0758,320.983 85.2425,317.15 87,311.5C 90.6847,309.022 94.5181,308.856 98.5,311C 100.917,312.626 103.417,314.126 106,315.5C 106.667,314.833 106.667,314.167 106,313.5C 98.5408,308.791 90.5408,305.124 82,302.5C 78.5753,302.919 75.9086,304.586 74,307.5C 73.613,303.835 75.113,301.002 78.5,299C 77.2161,298.316 76.0495,298.483 75,299.5C 74.8363,296.478 75.8363,293.811 78,291.5C 83.8057,284.849 90.3057,279.182 97.5,274.5 Z"/></g>
<g><path style="opacity:1" fill="#101111" d="M 320.5,459.5 C 291.417,462.799 262.25,465.132 233,466.5C 210.734,467.084 189.234,463.417 168.5,455.5C 165.564,453.692 162.564,451.859 159.5,450C 158.235,448.663 157.735,447.163 158,445.5C 160.251,447.377 162.751,448.877 165.5,450C 194.386,461.861 224.386,465.861 255.5,462C 270.787,460.169 286.12,458.836 301.5,458C 322.066,458.291 339.733,451.458 354.5,437.5C 355.521,438.002 355.688,438.668 355,439.5C 345.525,449.84 334.025,456.507 320.5,459.5 Z"/></g>
</svg>
