<?xml version="1.0" encoding="UTF-8"?>
<!DOCTYPE svg PUBLIC "-//W3C//DTD SVG 1.1//EN" "http://www.w3.org/Graphics/SVG/1.1/DTD/svg11.dtd">
<svg xmlns="http://www.w3.org/2000/svg" version="1.1" width="500px" height="500px" style="shape-rendering:geometricPrecision; text-rendering:geometricPrecision; image-rendering:optimizeQuality; fill-rule:evenodd; clip-rule:evenodd" xmlns:xlink="http://www.w3.org/1999/xlink">
<g><path style="opacity:0.999" fill="#161516" d="M 249.5,83.5 C 249.011,84.9952 248.345,86.3285 247.5,87.5C 246.866,86.0532 245.699,85.3866 244,85.5C 236.289,87.9427 228.456,89.9427 220.5,91.5C 213.908,100.348 207.074,109.015 200,117.5C 199.51,116.207 199.343,114.873 199.5,113.5C 203.627,98.9532 208.46,84.6199 214,70.5C 220.049,66.6421 226.382,63.3087 233,60.5C 234.512,61.2567 235.846,62.2567 237,63.5C 241.439,70.0546 245.605,76.7213 249.5,83.5 Z"/></g>
<g><path style="opacity:0.984" fill="#0b0a0a" d="M 328.5,88.5 C 328.41,91.1522 329.076,93.4855 330.5,95.5C 330.5,96.1667 330.5,96.8333 330.5,97.5C 330.294,100.495 330.96,103.162 332.5,105.5C 335.165,113.122 336.165,120.788 335.5,128.5C 322.527,124.401 309.861,119.734 297.5,114.5C 292.771,111.738 287.771,109.238 282.5,107C 281.316,105.855 281.316,104.688 282.5,103.5C 296.934,97.2851 311.601,91.6184 326.5,86.5C 327.713,86.7472 328.38,87.4138 328.5,88.5 Z"/></g>
<g><path style="opacity:0.165" fill="#858584" d="M 328.5,88.5 C 329.924,90.5145 330.59,92.8478 330.5,95.5C 329.076,93.4855 328.41,91.1522 328.5,88.5 Z"/></g>
<g><path style="opacity:0.993" fill="#808080" d="M 249.5,83.5 C 247.197,102.393 244.197,121.393 240.5,140.5C 238.783,143.845 238.116,147.511 238.5,151.5C 237.98,156.581 236.98,161.581 235.5,166.5C 235.543,167.416 235.876,168.083 236.5,168.5C 234.754,172.327 232.754,175.993 230.5,179.5C 223.993,169.157 217.993,158.49 212.5,147.5C 207.747,139.326 203.58,130.993 200,122.5C 207.74,120.144 214.906,116.644 221.5,112C 230.897,104.493 239.564,96.3267 247.5,87.5C 248.345,86.3285 249.011,84.9952 249.5,83.5 Z"/></g>
<g><path style="opacity:0.165" fill="#7a7b78" d="M 330.5,97.5 C 331.768,99.9052 332.435,102.572 332.5,105.5C 330.96,103.162 330.294,100.495 330.5,97.5 Z"/></g>
<g><path style="opacity:1" fill="#333233" d="M 247.5,87.5 C 239.564,96.3267 230.897,104.493 221.5,112C 214.906,116.644 207.74,120.144 200,122.5C 203.58,130.993 207.747,139.326 212.5,147.5C 211.531,148.309 210.698,149.309 210,150.5C 207.978,149.214 205.811,148.214 203.5,147.5C 202.702,147.957 202.369,148.624 202.5,149.5C 201.078,140.458 199.411,131.458 197.5,122.5C 197.42,119.219 198.087,116.219 199.5,113.5C 199.343,114.873 199.51,116.207 200,117.5C 207.074,109.015 213.908,100.348 220.5,91.5C 228.456,89.9427 236.289,87.9427 244,85.5C 245.699,85.3866 246.866,86.0532 247.5,87.5 Z"/></g>
<g><path style="opacity:0.373" fill="#a1a1a1" d="M 277.5,105.5 C 277.167,106.167 276.833,106.833 276.5,107.5C 275.391,107.557 274.391,107.89 273.5,108.5C 274.035,106.554 275.368,105.554 277.5,105.5 Z"/></g>
<g><path style="opacity:0.157" fill="#adadad" d="M 273.5,108.5 C 273.573,110.027 272.906,111.027 271.5,111.5C 271.427,109.973 272.094,108.973 273.5,108.5 Z"/></g>
<g><path style="opacity:1" fill="#626162" d="M 276.5,107.5 C 283.296,110.432 290.296,112.765 297.5,114.5C 309.861,119.734 322.527,124.401 335.5,128.5C 334.066,131.047 332.4,133.381 330.5,135.5C 330.103,134.475 329.437,134.308 328.5,135C 325.933,137.396 323.6,139.896 321.5,142.5C 321.316,139.827 320.149,139.16 318,140.5C 317.5,140 317,139.5 316.5,139C 306.621,139.879 298.621,136.546 292.5,129C 292.833,128.667 293.167,128.333 293.5,128C 292,126.5 290.5,125 289,123.5C 288.667,123.833 288.333,124.167 288,124.5C 285.833,121 283.667,117.5 281.5,114C 280.5,113.333 279.5,113.333 278.5,114C 278.966,115.299 278.966,116.799 278.5,118.5C 277.693,114.979 277.026,111.312 276.5,107.5 Z"/></g>
<g><path style="opacity:1" fill="#282728" d="M 282.5,103.5 C 281.316,104.688 281.316,105.855 282.5,107C 287.771,109.238 292.771,111.738 297.5,114.5C 290.296,112.765 283.296,110.432 276.5,107.5C 276.833,106.833 277.167,106.167 277.5,105.5C 278.93,104.463 280.597,103.796 282.5,103.5 Z"/></g>
<g><path style="opacity:1" fill="#6c6b6b" d="M 321.5,142.5 C 310.375,152.226 298.708,161.226 286.5,169.5C 285.833,169.5 285.5,169.167 285.5,168.5C 282.091,152.023 279.758,135.356 278.5,118.5C 278.966,116.799 278.966,115.299 278.5,114C 279.5,113.333 280.5,113.333 281.5,114C 283.667,117.5 285.833,121 288,124.5C 288.333,124.167 288.667,123.833 289,123.5C 290.5,125 292,126.5 293.5,128C 293.167,128.333 292.833,128.667 292.5,129C 298.621,136.546 306.621,139.879 316.5,139C 317,139.5 317.5,140 318,140.5C 320.149,139.16 321.316,139.827 321.5,142.5 Z"/></g>
<g><path style="opacity:0.991" fill="#3b3a3a" d="M 276.5,107.5 C 277.026,111.312 277.693,114.979 278.5,118.5C 279.758,135.356 282.091,152.023 285.5,168.5C 282.554,171.313 279.221,173.646 275.5,175.5C 274.402,174.603 274.402,173.77 275.5,173C 272.833,172.333 272.833,171.667 275.5,171C 273.382,167.553 270.715,164.719 267.5,162.5C 264.936,156.351 260.769,151.684 255,148.5C 254.601,148.728 254.435,149.062 254.5,149.5C 253.691,147.972 253.024,146.306 252.5,144.5C 254.308,144.491 255.975,144.991 257.5,146C 260.983,149.239 264.65,152.239 268.5,155C 269.784,155.684 270.951,155.517 272,154.5C 271.05,147.549 267.216,143.049 260.5,141C 259.809,139.933 259.309,138.766 259,137.5C 258.329,136.748 257.496,136.414 256.5,136.5C 257.11,135.609 257.443,134.609 257.5,133.5C 258.906,133.027 259.573,132.027 259.5,130.5C 262.753,123.652 266.753,117.319 271.5,111.5C 272.906,111.027 273.573,110.027 273.5,108.5C 274.391,107.89 275.391,107.557 276.5,107.5 Z"/></g>
<g><path style="opacity:0.11" fill="#d6d6d6" d="M 259.5,130.5 C 259.573,132.027 258.906,133.027 257.5,133.5C 257.427,131.973 258.094,130.973 259.5,130.5 Z"/></g>
<g><path style="opacity:0.145" fill="#c9cbca" d="M 257.5,133.5 C 257.443,134.609 257.11,135.609 256.5,136.5C 256.167,136.5 255.833,136.5 255.5,136.5C 255.427,134.973 256.094,133.973 257.5,133.5 Z"/></g>
<g><path style="opacity:1" fill="#4e4d4c" d="M 255.5,136.5 C 255.833,136.5 256.167,136.5 256.5,136.5C 257.496,136.414 258.329,136.748 259,137.5C 259.309,138.766 259.809,139.933 260.5,141C 267.216,143.049 271.05,147.549 272,154.5C 270.951,155.517 269.784,155.684 268.5,155C 264.65,152.239 260.983,149.239 257.5,146C 255.975,144.991 254.308,144.491 252.5,144.5C 251.583,144.494 251.083,145.494 251,147.5C 250.23,146.402 249.397,146.402 248.5,147.5C 250.087,143.317 252.421,139.65 255.5,136.5 Z"/></g>
<g><path style="opacity:0.122" fill="#d9d9d9" d="M 240.5,140.5 C 240.354,144.387 239.687,148.054 238.5,151.5C 238.116,147.511 238.783,143.845 240.5,140.5 Z"/></g>
<g><path style="opacity:0.09" fill="#cbcbcb" d="M 248.5,147.5 C 248.573,149.027 247.906,150.027 246.5,150.5C 246.427,148.973 247.094,147.973 248.5,147.5 Z"/></g>
<g><path style="opacity:0.985" fill="#2f2f30" d="M 330.5,135.5 C 319.727,154.853 309.727,174.519 300.5,194.5C 300.108,192.821 299.608,191.154 299,189.5C 294.561,182.945 290.395,176.279 286.5,169.5C 298.708,161.226 310.375,152.226 321.5,142.5C 323.6,139.896 325.933,137.396 328.5,135C 329.437,134.308 330.103,134.475 330.5,135.5 Z"/></g>
<g><path style="opacity:1" fill="#3b393a" d="M 212.5,147.5 C 217.993,158.49 223.993,169.157 230.5,179.5C 230.5,179.833 230.5,180.167 230.5,180.5C 226.4,191.372 221.733,202.038 216.5,212.5C 211.649,191.548 206.983,170.548 202.5,149.5C 202.369,148.624 202.702,147.957 203.5,147.5C 205.811,148.214 207.978,149.214 210,150.5C 210.698,149.309 211.531,148.309 212.5,147.5 Z"/></g>
<g><path style="opacity:0.122" fill="#b4b4b4" d="M 245.5,152.5 C 245.573,154.027 244.906,155.027 243.5,155.5C 243.427,153.973 244.094,152.973 245.5,152.5 Z"/></g>
<g><path style="opacity:1" fill="#474646" d="M 275.5,175.5 C 270.882,178.278 266.382,181.278 262,184.5C 258.974,172.927 256.474,161.261 254.5,149.5C 254.435,149.062 254.601,148.728 255,148.5C 260.769,151.684 264.936,156.351 267.5,162.5C 270.715,164.719 273.382,167.553 275.5,171C 272.833,171.667 272.833,172.333 275.5,173C 274.402,173.77 274.402,174.603 275.5,175.5 Z"/></g>
<g><path style="opacity:0.996" fill="#1c1b1c" d="M 252.5,144.5 C 253.024,146.306 253.691,147.972 254.5,149.5C 256.474,161.261 258.974,172.927 262,184.5C 266.382,181.278 270.882,178.278 275.5,175.5C 279.221,173.646 282.554,171.313 285.5,168.5C 285.5,169.167 285.833,169.5 286.5,169.5C 290.395,176.279 294.561,182.945 299,189.5C 299.608,191.154 300.108,192.821 300.5,194.5C 298.142,196.678 295.475,198.345 292.5,199.5C 292.586,198.504 292.252,197.671 291.5,197C 293.087,196.138 294.754,195.471 296.5,195C 274.889,188.263 252.889,183.43 230.5,180.5C 230.5,180.167 230.5,179.833 230.5,179.5C 232.754,175.993 234.754,172.327 236.5,168.5C 236.5,168.167 236.5,167.833 236.5,167.5C 237.5,167.167 238.167,166.5 238.5,165.5C 239.32,161.698 240.986,158.364 243.5,155.5C 244.906,155.027 245.573,154.027 245.5,152.5C 245.833,151.833 246.167,151.167 246.5,150.5C 247.906,150.027 248.573,149.027 248.5,147.5C 249.397,146.402 250.23,146.402 251,147.5C 251.083,145.494 251.583,144.494 252.5,144.5 Z"/></g>
<g><path style="opacity:0.082" fill="#c6c6c6" d="M 238.5,165.5 C 238.167,166.5 237.5,167.167 236.5,167.5C 236.5,166.167 237.167,165.5 238.5,165.5 Z"/></g>
<g><path style="opacity:0.991" fill="#0f0f0f" d="M 197.5,122.5 C 199.411,131.458 201.078,140.458 202.5,149.5C 206.983,170.548 211.649,191.548 216.5,212.5C 221.733,202.038 226.4,191.372 230.5,180.5C 252.889,183.43 274.889,188.263 296.5,195C 294.754,195.471 293.087,196.138 291.5,197C 292.252,197.671 292.586,198.504 292.5,199.5C 285.149,206.181 277.483,212.514 269.5,218.5C 268.127,218.343 266.793,218.51 265.5,219C 266.598,219.77 266.598,220.603 265.5,221.5C 260.167,226.5 254.833,231.5 249.5,236.5C 248.833,236.5 248.167,236.5 247.5,236.5C 244.984,236.245 242.65,235.411 240.5,234C 231.138,228.991 222.138,223.491 213.5,217.5C 205.833,217.5 198.167,217.5 190.5,217.5C 190.5,216.5 190.5,215.5 190.5,214.5C 192.394,183.776 194.727,153.109 197.5,122.5 Z"/></g>
<g><path style="opacity:1" fill="#ecedee" d="M 190.5,214.5 C 190.5,215.5 190.5,216.5 190.5,217.5C 198.167,217.5 205.833,217.5 213.5,217.5C 211.032,229.236 207.366,240.569 202.5,251.5C 200.983,251.489 199.816,250.823 199,249.5C 195.719,239.161 192.553,228.828 189.5,218.5C 184.105,218.267 178.772,218.6 173.5,219.5C 173.611,218.883 173.944,218.383 174.5,218C 179.467,216.281 184.467,216.114 189.5,217.5C 189.263,216.209 189.596,215.209 190.5,214.5 Z"/></g>
<g><path style="opacity:0.835" fill="#6f706f" d="M 269.5,218.5 C 268.738,220.262 267.404,221.262 265.5,221.5C 266.598,220.603 266.598,219.77 265.5,219C 266.793,218.51 268.127,218.343 269.5,218.5 Z"/></g>
<g><path style="opacity:1" fill="#c5c6c7" d="M 202.5,251.5 C 201.694,252.728 200.694,253.728 199.5,254.5C 191.075,257.308 182.741,260.308 174.5,263.5C 174.5,263.167 174.5,262.833 174.5,262.5C 178.072,248.85 182.238,235.516 187,222.5C 176.039,231.305 164.206,238.638 151.5,244.5C 150.833,244.5 150.167,244.5 149.5,244.5C 156.799,235.533 164.799,227.2 173.5,219.5C 178.772,218.6 184.105,218.267 189.5,218.5C 192.553,228.828 195.719,239.161 199,249.5C 199.816,250.823 200.983,251.489 202.5,251.5 Z"/></g>
<g><path style="opacity:1" fill="#2b2a2b" d="M 213.5,217.5 C 222.138,223.491 231.138,228.991 240.5,234C 242.65,235.411 244.984,236.245 247.5,236.5C 232.726,243.539 217.393,249.539 201.5,254.5C 200.833,254.5 200.167,254.5 199.5,254.5C 200.694,253.728 201.694,252.728 202.5,251.5C 207.366,240.569 211.032,229.236 213.5,217.5 Z"/></g>
<g><path style="opacity:1" fill="#dddede" d="M 174.5,262.5 C 168.122,258.969 162.122,254.802 156.5,250C 154.627,248.296 152.96,246.463 151.5,244.5C 164.206,238.638 176.039,231.305 187,222.5C 182.238,235.516 178.072,248.85 174.5,262.5 Z"/></g>
<g><path style="opacity:0.983" fill="#515050" d="M 149.5,244.5 C 150.167,244.5 150.833,244.5 151.5,244.5C 152.96,246.463 154.627,248.296 156.5,250C 162.122,254.802 168.122,258.969 174.5,262.5C 174.5,262.833 174.5,263.167 174.5,263.5C 174.167,263.5 173.833,263.5 173.5,263.5C 167.253,265.791 160.92,267.791 154.5,269.5C 153.79,267.254 153.29,264.92 153,262.5C 152.577,263.956 151.744,264.456 150.5,264C 149.272,261.428 147.605,259.262 145.5,257.5C 142.391,258.774 140.058,260.94 138.5,264C 134.551,264.807 134.551,265.307 138.5,265.5C 138.762,266.978 138.429,268.311 137.5,269.5C 136.575,268.359 135.741,268.359 135,269.5C 134.085,268.672 133.419,267.672 133,266.5C 132.292,267.381 131.458,268.047 130.5,268.5C 135.126,261.874 140.126,255.54 145.5,249.5C 147.587,248.415 148.92,246.749 149.5,244.5 Z"/></g>
<g><path style="opacity:0.129" fill="#c0c2c1" d="M 149.5,244.5 C 148.92,246.749 147.587,248.415 145.5,249.5C 146.08,247.251 147.413,245.585 149.5,244.5 Z"/></g>
<g><path style="opacity:1" fill="#151415" d="M 247.5,236.5 C 248.167,236.5 248.833,236.5 249.5,236.5C 249.833,245.167 250.167,253.833 250.5,262.5C 250.565,268.617 250.065,274.617 249,280.5C 250.587,281.727 251.921,281.394 253,279.5C 253.853,281.125 254.853,281.458 256,280.5C 257.067,281.191 258.234,281.691 259.5,282C 256.774,282.182 254.107,282.682 251.5,283.5C 253.925,284.649 253.925,285.316 251.5,285.5C 248.57,284.701 245.57,284.368 242.5,284.5C 231.478,284.164 220.478,283.498 209.5,282.5C 208.5,282.5 207.5,282.5 206.5,282.5C 206.821,275.295 205.155,268.462 201.5,262C 202.747,259.493 202.747,256.993 201.5,254.5C 217.393,249.539 232.726,243.539 247.5,236.5 Z"/></g>
<g><path style="opacity:0.998" fill="#454344" d="M 154.5,269.5 C 152.217,269.608 150.217,270.441 148.5,272C 140.395,279.194 132.728,286.86 125.5,295C 121.163,294.84 116.83,294.34 112.5,293.5C 112.737,294.791 112.404,295.791 111.5,296.5C 111.46,293.575 112.293,290.909 114,288.5C 119.364,281.644 124.864,274.977 130.5,268.5C 131.458,268.047 132.292,267.381 133,266.5C 133.419,267.672 134.085,268.672 135,269.5C 135.741,268.359 136.575,268.359 137.5,269.5C 138.429,268.311 138.762,266.978 138.5,265.5C 134.551,265.307 134.551,264.807 138.5,264C 140.058,260.94 142.391,258.774 145.5,257.5C 147.605,259.262 149.272,261.428 150.5,264C 151.744,264.456 152.577,263.956 153,262.5C 153.29,264.92 153.79,267.254 154.5,269.5 Z"/></g>
<g><path style="opacity:1" fill="#292728" d="M 173.5,263.5 C 175.981,273.348 177.148,283.348 177,293.5C 176.283,292.956 175.783,292.289 175.5,291.5C 170.499,284.852 165.166,279.185 159.5,274.5C 158.685,273.571 157.852,272.571 157,271.5C 152.944,280.242 147.277,287.909 140,294.5C 137.454,297.86 135.621,301.526 134.5,305.5C 126.419,304.256 119.086,305.922 112.5,310.5C 111.548,312.045 111.215,313.712 111.5,315.5C 110.324,309.317 110.324,302.983 111.5,296.5C 112.404,295.791 112.737,294.791 112.5,293.5C 116.83,294.34 121.163,294.84 125.5,295C 132.728,286.86 140.395,279.194 148.5,272C 150.217,270.441 152.217,269.608 154.5,269.5C 160.92,267.791 167.253,265.791 173.5,263.5 Z"/></g>
<g><path style="opacity:0.983" fill="#282627" d="M 250.5,262.5 C 251.19,267.233 251.856,272.066 252.5,277C 267.137,281.667 281.47,286.834 295.5,292.5C 298.098,293.472 298.098,294.472 295.5,295.5C 280.437,293.398 265.77,290.065 251.5,285.5C 253.925,285.316 253.925,284.649 251.5,283.5C 254.107,282.682 256.774,282.182 259.5,282C 258.234,281.691 257.067,281.191 256,280.5C 254.853,281.458 253.853,281.125 253,279.5C 251.921,281.394 250.587,281.727 249,280.5C 250.065,274.617 250.565,268.617 250.5,262.5 Z"/></g>
<g><path style="opacity:0.997" fill="#070606" d="M 199.5,254.5 C 200.167,254.5 200.833,254.5 201.5,254.5C 202.747,256.993 202.747,259.493 201.5,262C 205.155,268.462 206.821,275.295 206.5,282.5C 205.087,285.661 203.42,288.661 201.5,291.5C 194.915,293.109 188.249,294.442 181.5,295.5C 179.876,295.36 178.71,296.027 178,297.5C 177.002,302.82 176.169,308.153 175.5,313.5C 174.578,317.112 173.911,320.779 173.5,324.5C 171.656,329.196 169.489,333.863 167,338.5C 165.211,340.229 163.044,340.896 160.5,340.5C 150.19,338.605 139.857,336.772 129.5,335C 124.341,327.677 118.341,321.177 111.5,315.5C 111.215,313.712 111.548,312.045 112.5,310.5C 119.086,305.922 126.419,304.256 134.5,305.5C 135.621,301.526 137.454,297.86 140,294.5C 147.277,287.909 152.944,280.242 157,271.5C 157.852,272.571 158.685,273.571 159.5,274.5C 160.985,278.141 162.485,281.808 164,285.5C 167.777,287.638 171.61,289.638 175.5,291.5C 175.783,292.289 176.283,292.956 177,293.5C 177.148,283.348 175.981,273.348 173.5,263.5C 173.833,263.5 174.167,263.5 174.5,263.5C 182.741,260.308 191.075,257.308 199.5,254.5 Z"/></g>
<g><path style="opacity:1" fill="#48484a" d="M 175.5,291.5 C 171.61,289.638 167.777,287.638 164,285.5C 162.485,281.808 160.985,278.141 159.5,274.5C 165.166,279.185 170.499,284.852 175.5,291.5 Z"/></g>
<g><path style="opacity:1" fill="#aeaeae" d="M 193.5,266.5 C 195.595,266.76 196.928,267.926 197.5,270C 196.044,273.4 195.044,276.9 194.5,280.5C 190.813,279.824 187.48,278.324 184.5,276C 187.704,272.964 190.704,269.797 193.5,266.5 Z"/></g>
<g><path style="opacity:1" fill="#dbdddd" d="M 209.5,282.5 C 220.478,283.498 231.478,284.164 242.5,284.5C 244.265,285.461 246.265,285.795 248.5,285.5C 247.879,299.665 247.212,313.832 246.5,328C 246.485,331.576 245.818,334.742 244.5,337.5C 243.833,337.5 243.167,337.5 242.5,337.5C 233.914,324.662 225.581,311.662 217.5,298.5C 214.833,293.167 212.167,287.833 209.5,282.5 Z"/></g>
<g><path style="opacity:1" fill="#363435" d="M 242.5,284.5 C 245.57,284.368 248.57,284.701 251.5,285.5C 265.77,290.065 280.437,293.398 295.5,295.5C 282.132,308.203 268.465,320.537 254.5,332.5C 252.246,333.124 250.579,334.457 249.5,336.5C 247.461,337.672 246.128,339.338 245.5,341.5C 245.737,340.209 245.404,339.209 244.5,338.5C 244.5,338.167 244.5,337.833 244.5,337.5C 245.818,334.742 246.485,331.576 246.5,328C 247.212,313.832 247.879,299.665 248.5,285.5C 246.265,285.795 244.265,285.461 242.5,284.5 Z"/></g>
<g><path style="opacity:1" fill="#5e5d5f" d="M 201.5,291.5 C 199.513,295.473 197.513,299.473 195.5,303.5C 190.083,302.069 185.416,299.402 181.5,295.5C 188.249,294.442 194.915,293.109 201.5,291.5 Z"/></g>
<g><path style="opacity:0.979" fill="#c7c7c8" d="M 295.5,292.5 C 303.31,294.77 310.977,297.437 318.5,300.5C 310.925,305.293 302.925,309.626 294.5,313.5C 281.102,319.847 267.769,326.18 254.5,332.5C 268.465,320.537 282.132,308.203 295.5,295.5C 298.098,294.472 298.098,293.472 295.5,292.5 Z"/></g>
<g><path style="opacity:1" fill="#929292" d="M 206.5,282.5 C 207.5,282.5 208.5,282.5 209.5,282.5C 212.167,287.833 214.833,293.167 217.5,298.5C 217.607,300.379 217.107,300.712 216,299.5C 210.972,303.699 206.139,308.032 201.5,312.5C 199.163,310.334 196.663,308.334 194,306.5C 193.761,305.212 194.261,304.212 195.5,303.5C 197.513,299.473 199.513,295.473 201.5,291.5C 203.42,288.661 205.087,285.661 206.5,282.5 Z"/></g>
<g><path style="opacity:1" fill="#828282" d="M 181.5,295.5 C 185.416,299.402 190.083,302.069 195.5,303.5C 194.261,304.212 193.761,305.212 194,306.5C 196.663,308.334 199.163,310.334 201.5,312.5C 213.19,320.533 224.856,328.533 236.5,336.5C 227.675,335.989 219.008,335.322 210.5,334.5C 213.85,334.665 217.183,334.498 220.5,334C 215.228,331.059 210.228,327.726 205.5,324C 195.935,321.762 187.435,318.262 180,313.5C 179.667,313.833 179.333,314.167 179,314.5C 178.667,313.5 178.333,312.5 178,311.5C 177.583,312.756 176.75,313.423 175.5,313.5C 176.169,308.153 177.002,302.82 178,297.5C 178.71,296.027 179.876,295.36 181.5,295.5 Z"/></g>
<g><path style="opacity:1" fill="#e6e7e7" d="M 318.5,300.5 C 319.791,300.263 320.791,300.596 321.5,301.5C 319.971,317.978 318.971,334.645 318.5,351.5C 318.167,354.833 317.833,358.167 317.5,361.5C 316.817,361.863 316.15,362.196 315.5,362.5C 304.109,356.803 292.442,351.47 280.5,346.5C 275.459,344.664 270.459,342.997 265.5,341.5C 265.886,338.738 267.219,337.738 269.5,338.5C 277.595,336.524 285.428,333.858 293,330.5C 293.483,329.552 293.649,328.552 293.5,327.5C 294.833,327.5 296.167,327.5 297.5,327.5C 297.665,323.818 297.499,320.152 297,316.5C 295.955,315.627 295.122,314.627 294.5,313.5C 302.925,309.626 310.925,305.293 318.5,300.5 Z"/></g>
<g><path style="opacity:0.995" fill="#070707" d="M 321.5,301.5 C 327.167,321.484 331.833,341.817 335.5,362.5C 335.41,365.152 336.076,367.485 337.5,369.5C 340.321,379.927 342.654,390.593 344.5,401.5C 344.423,403.299 343.923,404.966 343,406.5C 337.927,412.064 333.094,417.731 328.5,423.5C 326.801,423.34 325.134,423.506 323.5,424C 324.756,424.417 325.423,425.25 325.5,426.5C 323.524,428.011 321.191,428.844 318.5,429C 306.222,431.016 293.888,432.516 281.5,433.5C 264.28,435.199 247.28,437.532 230.5,440.5C 227.763,440.599 225.096,440.265 222.5,439.5C 220.367,437.909 218.701,435.909 217.5,433.5C 217.573,431.973 216.906,430.973 215.5,430.5C 204.019,416.236 192.519,401.903 181,387.5C 175.874,374.253 171.041,360.92 166.5,347.5C 166.351,346.448 166.517,345.448 167,344.5C 172.524,350.389 177.69,356.556 182.5,363C 189.903,364.912 197.07,367.412 204,370.5C 218.582,361.072 232.082,350.405 244.5,338.5C 245.404,339.209 245.737,340.209 245.5,341.5C 238.829,370.512 232.329,399.512 226,428.5C 228.583,427.126 231.083,425.626 233.5,424C 245.777,413.21 258.443,403.043 271.5,393.5C 286.526,383.656 301.192,373.322 315.5,362.5C 316.15,362.196 316.817,361.863 317.5,361.5C 317.833,358.167 318.167,354.833 318.5,351.5C 318.971,334.645 319.971,317.978 321.5,301.5 Z"/></g>
<g><path style="opacity:1" fill="#b1b1b1" d="M 217.5,298.5 C 225.581,311.662 233.914,324.662 242.5,337.5C 240.565,336.85 238.565,336.517 236.5,336.5C 224.856,328.533 213.19,320.533 201.5,312.5C 206.139,308.032 210.972,303.699 216,299.5C 217.107,300.712 217.607,300.379 217.5,298.5 Z"/></g>
<g><path style="opacity:1" fill="#939394" d="M 210.5,334.5 C 203.833,334.5 197.167,334.5 190.5,334.5C 184.23,331.834 178.564,328.5 173.5,324.5C 173.911,320.779 174.578,317.112 175.5,313.5C 176.75,313.423 177.583,312.756 178,311.5C 178.333,312.5 178.667,313.5 179,314.5C 179.333,314.167 179.667,313.833 180,313.5C 187.435,318.262 195.935,321.762 205.5,324C 210.228,327.726 215.228,331.059 220.5,334C 217.183,334.498 213.85,334.665 210.5,334.5 Z"/></g>
<g><path style="opacity:1" fill="#d8d9da" d="M 294.5,313.5 C 295.122,314.627 295.955,315.627 297,316.5C 297.499,320.152 297.665,323.818 297.5,327.5C 296.167,327.5 294.833,327.5 293.5,327.5C 293.649,328.552 293.483,329.552 293,330.5C 285.428,333.858 277.595,336.524 269.5,338.5C 267.219,337.738 265.886,338.738 265.5,341.5C 260.555,340.181 255.555,339.014 250.5,338C 249.944,337.617 249.611,337.117 249.5,336.5C 250.579,334.457 252.246,333.124 254.5,332.5C 267.769,326.18 281.102,319.847 294.5,313.5 Z"/></g>
<g><path style="opacity:1" fill="#808081" d="M 173.5,324.5 C 178.564,328.5 184.23,331.834 190.5,334.5C 182.974,336.377 175.308,338.21 167.5,340C 165.963,341.11 165.297,342.61 165.5,344.5C 164.596,343.791 164.263,342.791 164.5,341.5C 162.901,341.768 161.568,341.434 160.5,340.5C 163.044,340.896 165.211,340.229 167,338.5C 169.489,333.863 171.656,329.196 173.5,324.5 Z"/></g>
<g><path style="opacity:1" fill="#0d0b0c" d="M 190.5,334.5 C 197.167,334.5 203.833,334.5 210.5,334.5C 219.008,335.322 227.675,335.989 236.5,336.5C 238.565,336.517 240.565,336.85 242.5,337.5C 243.167,337.5 243.833,337.5 244.5,337.5C 244.5,337.833 244.5,338.167 244.5,338.5C 232.082,350.405 218.582,361.072 204,370.5C 197.07,367.412 189.903,364.912 182.5,363C 177.69,356.556 172.524,350.389 167,344.5C 166.517,345.448 166.351,346.448 166.5,347.5C 165.596,346.791 165.263,345.791 165.5,344.5C 165.297,342.61 165.963,341.11 167.5,340C 175.308,338.21 182.974,336.377 190.5,334.5 Z"/></g>
<g><path style="opacity:1" fill="#c7c7c8" d="M 249.5,336.5 C 249.611,337.117 249.944,337.617 250.5,338C 255.555,339.014 260.555,340.181 265.5,341.5C 270.459,342.997 275.459,344.664 280.5,346.5C 280.414,347.496 280.748,348.329 281.5,349C 276.691,350.328 272.025,352.161 267.5,354.5C 268.556,358.471 268.556,362.471 267.5,366.5C 269.5,366.5 271.5,366.5 273.5,366.5C 273.227,368.451 273.893,369.951 275.5,371C 274.333,372.167 273.167,373.333 272,374.5C 271.541,378.339 271.041,382.172 270.5,386C 270.325,387.658 269.658,388.991 268.5,390C 270.125,390.853 270.458,391.853 269.5,393C 270.094,393.464 270.761,393.631 271.5,393.5C 258.443,403.043 245.777,413.21 233.5,424C 231.083,425.626 228.583,427.126 226,428.5C 232.329,399.512 238.829,370.512 245.5,341.5C 246.128,339.338 247.461,337.672 249.5,336.5 Z"/></g>
<g><path style="opacity:1" fill="#d0d1d1" d="M 280.5,346.5 C 292.442,351.47 304.109,356.803 315.5,362.5C 301.192,373.322 286.526,383.656 271.5,393.5C 270.761,393.631 270.094,393.464 269.5,393C 270.458,391.853 270.125,390.853 268.5,390C 269.658,388.991 270.325,387.658 270.5,386C 271.041,382.172 271.541,378.339 272,374.5C 273.167,373.333 274.333,372.167 275.5,371C 273.893,369.951 273.227,368.451 273.5,366.5C 271.5,366.5 269.5,366.5 267.5,366.5C 268.556,362.471 268.556,358.471 267.5,354.5C 272.025,352.161 276.691,350.328 281.5,349C 280.748,348.329 280.414,347.496 280.5,346.5 Z"/></g>
<g><path style="opacity:0.204" fill="#5a5a59" d="M 335.5,362.5 C 336.924,364.515 337.59,366.848 337.5,369.5C 336.076,367.485 335.41,365.152 335.5,362.5 Z"/></g>
<g><path style="opacity:0.941" fill="#545453" d="M 328.5,423.5 C 327.833,424.833 326.833,425.833 325.5,426.5C 325.423,425.25 324.756,424.417 323.5,424C 325.134,423.506 326.801,423.34 328.5,423.5 Z"/></g>
<g><path style="opacity:0.004" fill="#d2d2d2" d="M 215.5,430.5 C 216.906,430.973 217.573,431.973 217.5,433.5C 216.094,433.027 215.427,432.027 215.5,430.5 Z"/></g>
<g><path style="opacity:0.373" fill="#7f8082" d="M 222.5,439.5 C 225.096,440.265 227.763,440.599 230.5,440.5C 229.551,441.152 228.385,441.486 227,441.5C 224.992,441.693 223.492,441.026 222.5,439.5 Z"/></g>
<g><path style="opacity:0.004" fill="#cbcfcf" d="M 281.5,433.5 C 264.762,436.786 247.762,439.119 230.5,440.5C 247.28,437.532 264.28,435.199 281.5,433.5 Z"/></g>
</svg>
